<svg width="26" height="26" viewBox="0 0 26 26" fill="none" xmlns="http://www.w3.org/2000/svg">
<path d="M15.1667 10.2917H18.4167C19.0125 10.2917 19.5 9.80417 19.5 9.20833C19.5 8.6125 19.0125 8.125 18.4167 8.125H15.1667C14.5708 8.125 14.0833 8.6125 14.0833 9.20833C14.0833 9.80417 14.5708 10.2917 15.1667 10.2917ZM15.1667 17.875H18.4167C19.0125 17.875 19.5 17.3875 19.5 16.7917C19.5 16.1958 19.0125 15.7083 18.4167 15.7083H15.1667C14.5708 15.7083 14.0833 16.1958 14.0833 16.7917C14.0833 17.3875 14.5708 17.875 15.1667 17.875ZM20.5833 22.75H5.41667C4.225 22.75 3.25 21.775 3.25 20.5833V5.41667C3.25 4.225 4.225 3.25 5.41667 3.25H20.5833C21.775 3.25 22.75 4.225 22.75 5.41667V20.5833C22.75 21.775 21.775 22.75 20.5833 22.75ZM7.58333 11.9167H10.8333C11.4292 11.9167 11.9167 11.4292 11.9167 10.8333V7.58333C11.9167 6.9875 11.4292 6.5 10.8333 6.5H7.58333C6.9875 6.5 6.5 6.9875 6.5 7.58333V10.8333C6.5 11.4292 6.9875 11.9167 7.58333 11.9167ZM7.58333 7.58333H10.8333V10.8333H7.58333V7.58333ZM7.58333 19.5H10.8333C11.4292 19.5 11.9167 19.0125 11.9167 18.4167V15.1667C11.9167 14.5708 11.4292 14.0833 10.8333 14.0833H7.58333C6.9875 14.0833 6.5 14.5708 6.5 15.1667V18.4167C6.5 19.0125 6.9875 19.5 7.58333 19.5ZM7.58333 15.1667H10.8333V18.4167H7.58333V15.1667Z" fill="#EDEDF1"/>
</svg>
