<svg width="26" height="26" viewBox="0 0 26 26" fill="none" xmlns="http://www.w3.org/2000/svg">
<path d="M13 1.625C5.82055 1.625 0 6.35375 0 12.1875C0 14.7042 1.08723 17.0122 2.89555 18.8266C2.25773 21.3814 0.137109 23.6625 0.111719 23.6895C0.057039 23.747 0.0204485 23.8194 0.0064772 23.8976C-0.00749416 23.9757 0.00176704 24.0563 0.0331143 24.1293C0.0644616 24.2022 0.116518 24.2644 0.182841 24.3081C0.249163 24.3518 0.326838 24.375 0.40625 24.375C3.77102 24.375 6.29637 22.7627 7.54609 21.7659C9.20613 22.391 11.0495 22.75 13 22.75C20.1795 22.75 26 18.0212 26 12.1875C26 6.35375 20.1795 1.625 13 1.625ZM14.2188 16.9833V17.875C14.2188 18.3239 13.8552 18.6875 13.4062 18.6875H12.5938C12.1448 18.6875 11.7812 18.3239 11.7812 17.875V16.9746C11.2013 16.9061 10.6498 16.7111 10.1674 16.3927C9.85156 16.184 9.82109 15.727 10.0887 15.4593L10.9784 14.5696C11.1683 14.3797 11.4512 14.3543 11.6949 14.4666C11.8564 14.5407 12.0331 14.5793 12.2159 14.5793H13.8805C14.1172 14.5793 14.3091 14.3873 14.3091 14.1517C14.3091 13.9613 14.1812 13.7922 13.9984 13.7399L11.4557 13.0137C10.3259 12.6912 9.42398 11.7589 9.27672 10.593C9.07105 8.96441 10.2431 7.57504 11.7812 7.39121V6.5C11.7812 6.05109 12.1448 5.6875 12.5938 5.6875H13.4062C13.8552 5.6875 14.2188 6.05109 14.2188 6.5V7.40035C14.7987 7.46891 15.3502 7.66391 15.8326 7.9823C16.1484 8.19102 16.1789 8.64805 15.9113 8.91566L15.0216 9.80535C14.8317 9.99527 14.5488 10.0207 14.3051 9.90844C14.1416 9.83368 13.9638 9.79522 13.7841 9.7957H12.1195C11.8828 9.7957 11.6909 9.98766 11.6909 10.2233C11.6909 10.4137 11.8188 10.5828 12.0016 10.6351L14.5443 11.3613C15.6741 11.6843 16.576 12.6161 16.7233 13.782C16.9289 15.4101 15.7569 16.7995 14.2188 16.9833V16.9833Z" fill="#EDEDF1"/>
</svg>
