<svg width="26" height="21" viewBox="0 0 26 21" fill="none" xmlns="http://www.w3.org/2000/svg">
<g clip-path="url(#clip0_6_22)">
<path d="M25.2346 2.23371C23.6588 1.56639 22.0817 1.3125 20.5055 1.3125C15.5017 1.31209 10.4983 3.86941 5.49453 3.86941C4.23962 3.86941 2.98553 3.70863 1.73062 3.30668C1.58966 3.26156 1.44828 3.24023 1.31016 3.24023C0.611 3.24023 0 3.78656 0 4.54494V17.5576C0 18.0756 0.293719 18.5665 0.765375 18.7659C2.34122 19.4336 3.91828 19.6875 5.49453 19.6875C10.4983 19.6875 15.5021 17.1302 20.5059 17.1302C21.7608 17.1302 23.0149 17.291 24.2698 17.6929C24.4107 17.738 24.5521 17.7594 24.6902 17.7594C25.3894 17.7594 26.0004 17.213 26.0004 16.4546V3.44244C26 2.924 25.7063 2.43346 25.2346 2.23371V2.23371ZM1.95 5.42309C2.76737 5.6298 3.6205 5.73357 4.498 5.78935C4.25912 6.9948 3.20937 7.9033 1.95 7.9033V5.42309ZM1.95 17.1125V15.1528C3.34628 15.1528 4.47606 16.2713 4.53822 17.6712C3.62294 17.5969 2.76737 17.4124 1.95 17.1125V17.1125ZM13 14.4375C11.2048 14.4375 9.75 12.6742 9.75 10.5C9.75 8.32535 11.2052 6.5625 13 6.5625C14.7948 6.5625 16.25 8.32535 16.25 10.5C16.25 12.6751 14.7944 14.4375 13 14.4375ZM24.05 15.5769C23.3382 15.3969 22.5993 15.296 21.8432 15.2307C22.0817 14.1611 22.9604 13.3489 24.05 13.2095V15.5769ZM24.05 5.89271C22.7951 5.73234 21.8213 4.67455 21.7827 3.3682C22.5765 3.45721 23.3301 3.62373 24.05 3.88746V5.89271Z" fill="#EDEDF1"/>
</g>
<defs>
<clipPath id="clip0_6_22">
<rect width="26" height="21" fill="white"/>
</clipPath>
</defs>
</svg>
