<svg width="26" height="26" viewBox="0 0 26 26" fill="none" xmlns="http://www.w3.org/2000/svg">
<path d="M13 23.8333C14.1917 23.8333 15.1667 22.8583 15.1667 21.6667H10.8333C10.8333 22.8583 11.7975 23.8333 13 23.8333ZM19.5 17.3333V11.9167C19.5 8.59083 17.7233 5.80667 14.625 5.07V4.33333C14.625 3.43417 13.8992 2.70833 13 2.70833C12.1008 2.70833 11.375 3.43417 11.375 4.33333V5.07C8.26583 5.80667 6.49999 8.58 6.49999 11.9167V17.3333L5.10249 18.7308C4.41999 19.4133 4.89666 20.5833 5.86083 20.5833H20.1283C21.0925 20.5833 21.58 19.4133 20.8975 18.7308L19.5 17.3333Z" fill="#EDEDF1"/>
</svg>
