<svg width="122" height="122" viewBox="0 0 122 122" fill="none" xmlns="http://www.w3.org/2000/svg">
<circle cx="60.8861" cy="60.9578" r="52.5" transform="rotate(-80.2843 60.8861 60.9578)" stroke="#1175F6" stroke-opacity="0.4" stroke-width="15"/>
<path d="M55.7538 112.816C63.0926 113.487 70.4904 112.606 77.466 110.229C84.4416 107.852 90.8386 104.033 96.241 99.0211C101.643 94.0089 105.93 87.9155 108.822 81.1373C111.714 74.3591 113.147 67.048 113.027 59.6796C112.907 52.3112 111.237 45.0506 108.126 38.3701C105.015 31.6896 100.532 25.739 94.9692 20.9053C89.4065 16.0717 82.8885 12.4632 75.8393 10.3148C68.79 8.16637 61.3674 7.52607 54.0544 8.43557" stroke="#1175F6" stroke-width="15" stroke-linecap="round"/>
<path d="M45.64 64.104C45.64 63.64 45.536 63.232 45.328 62.88C45.12 62.512 44.76 62.208 44.248 61.968C43.736 61.728 43.048 61.544 42.184 61.416C41.32 61.288 40.232 61.224 38.92 61.224C39.096 59.736 39.24 58.224 39.352 56.688C39.464 55.152 39.552 53.712 39.616 52.368H48.616V55.368H42.616C42.584 55.944 42.544 56.504 42.496 57.048C42.464 57.576 42.424 58.04 42.376 58.44C44.712 58.6 46.432 59.152 47.536 60.096C48.656 61.024 49.216 62.32 49.216 63.984C49.216 64.752 49.08 65.464 48.808 66.12C48.536 66.776 48.128 67.344 47.584 67.824C47.04 68.304 46.352 68.68 45.52 68.952C44.704 69.224 43.744 69.36 42.64 69.36C42.208 69.36 41.752 69.328 41.272 69.264C40.808 69.216 40.352 69.144 39.904 69.048C39.472 68.968 39.08 68.88 38.728 68.784C38.376 68.688 38.104 68.592 37.912 68.496L38.56 65.544C38.96 65.72 39.488 65.896 40.144 66.072C40.8 66.232 41.584 66.312 42.496 66.312C43.6 66.312 44.4 66.096 44.896 65.664C45.392 65.216 45.64 64.696 45.64 64.104ZM63.4566 60.648C63.4566 63.448 62.9206 65.6 61.8486 67.104C60.7926 68.592 59.3286 69.336 57.4566 69.336C55.5846 69.336 54.1126 68.592 53.0406 67.104C51.9846 65.6 51.4566 63.448 51.4566 60.648C51.4566 59.256 51.5926 58.024 51.8646 56.952C52.1526 55.88 52.5606 54.976 53.0886 54.24C53.6166 53.504 54.2486 52.944 54.9846 52.56C55.7206 52.176 56.5446 51.984 57.4566 51.984C59.3286 51.984 60.7926 52.736 61.8486 54.24C62.9206 55.728 63.4566 57.864 63.4566 60.648ZM59.8086 60.648C59.8086 59.816 59.7686 59.064 59.6886 58.392C59.6086 57.704 59.4806 57.112 59.3046 56.616C59.1286 56.12 58.8886 55.736 58.5846 55.464C58.2806 55.192 57.9046 55.056 57.4566 55.056C57.0086 55.056 56.6326 55.192 56.3286 55.464C56.0406 55.736 55.8006 56.12 55.6086 56.616C55.4326 57.112 55.3046 57.704 55.2246 58.392C55.1446 59.064 55.1046 59.816 55.1046 60.648C55.1046 61.48 55.1446 62.24 55.2246 62.928C55.3046 63.616 55.4326 64.208 55.6086 64.704C55.8006 65.2 56.0406 65.584 56.3286 65.856C56.6326 66.128 57.0086 66.264 57.4566 66.264C57.9046 66.264 58.2806 66.128 58.5846 65.856C58.8886 65.584 59.1286 65.2 59.3046 64.704C59.4806 64.208 59.6086 63.616 59.6886 62.928C59.7686 62.24 59.8086 61.48 59.8086 60.648ZM73.6173 56.64C73.6173 58.144 73.2333 59.296 72.4653 60.096C71.6973 60.896 70.6653 61.296 69.3693 61.296C68.0733 61.296 67.0413 60.896 66.2733 60.096C65.5053 59.296 65.1213 58.144 65.1213 56.64C65.1213 55.136 65.5053 53.984 66.2733 53.184C67.0413 52.384 68.0733 51.984 69.3693 51.984C70.6653 51.984 71.6973 52.384 72.4653 53.184C73.2333 53.984 73.6173 55.136 73.6173 56.64ZM70.9053 56.64C70.9053 55.824 70.7613 55.232 70.4733 54.864C70.1853 54.496 69.8173 54.312 69.3693 54.312C68.9053 54.312 68.5293 54.496 68.2413 54.864C67.9693 55.232 67.8333 55.824 67.8333 56.64C67.8333 57.456 67.9693 58.056 68.2413 58.44C68.5293 58.808 68.9053 58.992 69.3693 58.992C69.8173 58.992 70.1853 58.808 70.4733 58.44C70.7613 58.056 70.9053 57.456 70.9053 56.64ZM78.2973 52.368H81.6333L72.2493 69H68.9133L78.2973 52.368ZM85.4733 64.728C85.4733 66.232 85.0893 67.384 84.3213 68.184C83.5533 68.984 82.5213 69.384 81.2253 69.384C79.9293 69.384 78.8973 68.984 78.1293 68.184C77.3613 67.384 76.9773 66.232 76.9773 64.728C76.9773 63.224 77.3613 62.072 78.1293 61.272C78.8973 60.472 79.9293 60.072 81.2253 60.072C82.5213 60.072 83.5533 60.472 84.3213 61.272C85.0893 62.072 85.4733 63.224 85.4733 64.728ZM82.7613 64.728C82.7613 63.912 82.6173 63.32 82.3293 62.952C82.0413 62.584 81.6733 62.4 81.2253 62.4C80.7613 62.4 80.3853 62.584 80.0973 62.952C79.8253 63.32 79.6893 63.912 79.6893 64.728C79.6893 65.544 79.8253 66.144 80.0973 66.528C80.3853 66.896 80.7613 67.08 81.2253 67.08C81.6733 67.08 82.0413 66.896 82.3293 66.528C82.6173 66.144 82.7613 65.544 82.7613 64.728Z" fill="#EDEDF1"/>
</svg>
