<svg width="26" height="26" viewBox="0 0 26 26" fill="none" xmlns="http://www.w3.org/2000/svg">
<path d="M18.2542 7.42083L19.8142 8.98083L14.5275 14.2675L10.9633 10.7033C10.5408 10.2808 9.85833 10.2808 9.43583 10.7033L2.93583 17.2142C2.51333 17.6367 2.51333 18.3192 2.93583 18.7417C3.35833 19.1642 4.04083 19.1642 4.46333 18.7417L10.1942 13L13.7583 16.5642C14.1808 16.9867 14.8633 16.9867 15.2858 16.5642L21.3417 10.5192L22.9017 12.0792C23.2375 12.415 23.8225 12.1767 23.8225 11.7V7.04167C23.8333 6.73833 23.595 6.5 23.2917 6.5H18.6442C18.1567 6.5 17.9183 7.085 18.2542 7.42083V7.42083Z" fill="#EDEDF1"/>
</svg>
