<svg width="26" height="26" viewBox="0 0 26 26" fill="none" xmlns="http://www.w3.org/2000/svg">
<path d="M23.4203 6.5H4.0625C3.61359 6.5 3.25 6.13641 3.25 5.6875C3.25 5.23859 3.61359 4.875 4.0625 4.875H23.5625C24.0114 4.875 24.375 4.51141 24.375 4.0625C24.375 2.71629 23.2837 1.625 21.9375 1.625H3.25C1.45488 1.625 0 3.07988 0 4.875V21.125C0 22.9201 1.45488 24.375 3.25 24.375H23.4203C24.8432 24.375 26 23.2817 26 21.9375V8.9375C26 7.59332 24.8432 6.5 23.4203 6.5ZM21.125 17.0625C20.2277 17.0625 19.5 16.3348 19.5 15.4375C19.5 14.5402 20.2277 13.8125 21.125 13.8125C22.0223 13.8125 22.75 14.5402 22.75 15.4375C22.75 16.3348 22.0223 17.0625 21.125 17.0625Z" fill="#EDEDF1"/>
</svg>
