<svg width="26" height="26" viewBox="0 0 26 26" fill="none" xmlns="http://www.w3.org/2000/svg">
<path d="M21.125 13C21.125 12.7508 21.1142 12.5125 21.0925 12.2633L23.1075 10.7358C23.5408 10.4108 23.66 9.80416 23.3892 9.3275L21.3633 5.82833C21.0925 5.35166 20.5075 5.15666 20.0092 5.37333L17.68 6.35916C17.2792 6.0775 16.8567 5.82833 16.4125 5.6225L16.0983 3.12C16.0333 2.57833 15.5675 2.16666 15.0258 2.16666H10.985C10.4325 2.16666 9.96667 2.57833 9.90167 3.12L9.5875 5.6225C9.14334 5.82833 8.72084 6.0775 8.32 6.35916L5.99084 5.37333C5.4925 5.15666 4.9075 5.35166 4.63667 5.82833L2.61084 9.33833C2.34 9.815 2.45917 10.4108 2.8925 10.7467L4.9075 12.2742C4.88584 12.5125 4.875 12.7508 4.875 13C4.875 13.2492 4.88584 13.4875 4.9075 13.7367L2.8925 15.2642C2.45917 15.5892 2.34 16.1958 2.61084 16.6725L4.63667 20.1717C4.9075 20.6483 5.4925 20.8433 5.99084 20.6267L8.32 19.6408C8.72084 19.9225 9.14334 20.1717 9.5875 20.3775L9.90167 22.88C9.96667 23.4217 10.4325 23.8333 10.9742 23.8333H15.015C15.5567 23.8333 16.0225 23.4217 16.0875 22.88L16.4017 20.3775C16.8458 20.1717 17.2683 19.9225 17.6692 19.6408L19.9983 20.6267C20.4967 20.8433 21.0817 20.6483 21.3525 20.1717L23.3783 16.6725C23.6492 16.1958 23.53 15.6 23.0967 15.2642L21.0817 13.7367C21.1142 13.4875 21.125 13.2492 21.125 13ZM13.0433 16.7917C10.9525 16.7917 9.25167 15.0908 9.25167 13C9.25167 10.9092 10.9525 9.20833 13.0433 9.20833C15.1342 9.20833 16.835 10.9092 16.835 13C16.835 15.0908 15.1342 16.7917 13.0433 16.7917Z" fill="#EDEDF1"/>
</svg>
